<?xml version="1.0" encoding="UTF-8"?>
<!-- Created with Inkscape (http://www.inkscape.org/) -->
<svg width="231.7" height="355.18" version="1.1" viewBox="0 0 231.7 355.18" xmlns="http://www.w3.org/2000/svg" xmlns:xlink="http://www.w3.org/1999/xlink">
 <defs>
  <linearGradient id="linearGradient78">
   <stop stop-color="#fff" offset=".31508"/>
   <stop stop-color="#00d4ba" offset="1"/>
  </linearGradient>
  <linearGradient id="linearGradient79" x1="628.98" x2="859.27" y1="427.71" y2="429.12" gradientUnits="userSpaceOnUse" xlink:href="#linearGradient78"/>
 </defs>
 <g transform="translate(-628.98 -206.28)">
  <g fill="url(#linearGradient79)">
   <path d="m860.68 206.28-104.47 52.746 29.848 9.8125-70.025 108.48c2.2239 0.62732 4.7992 1.3405 7.4238 2.0606 1.8028 0.4946 3.6278 0.99293 5.457 1.4883l54.908-88.748a9.5409 9.5409 0 0 1-0.0859-10.213 9.5409 9.5409 0 0 1 8.4141-4.498 9.5409 9.5409 0 0 1 4.7266 1.4336 9.5409 9.5409 0 0 1 3.0625 13.141 9.5409 9.5409 0 0 1-9.6152 4.3828l-53.578 86.604c2.8557 0.75946 5.6302 1.4919 8.1289 2.1797l22.58-36.496v-0.28515h0.17578l0.0176-0.0274 0.0449 0.0274h18.039l16.816-27.182a9.5409 9.5409 0 0 1-0.0859-10.213 9.5409 9.5409 0 0 1 8.4141-4.498 9.5409 9.5409 0 0 1 4.7246 1.4336 9.5409 9.5409 0 0 1 3.0645 13.141 9.5409 9.5409 0 0 1-9.6133 4.3828l-42.129 68.092c0.78338 0.4373 1.5413 0.87152 2.2109 1.2695 1.7196 1.022 2.8547 1.8014 3.9902 2.5801h2e-3c3e-3 2e-3 8e-3 5e-3 0.0117 8e-3l-6e-3 -2e-3 0.72852 0.68945 61.262-95.494 21.875 20.852zm-33.818 45.955a9.5409 9.5409 0 0 1 4.7266 1.4336 9.5409 9.5409 0 0 1 3.0625 13.141 9.5409 9.5409 0 0 1-9.6133 4.3809l-45.029 72.783-6.6035-4.0859 45.129-72.941a9.5409 9.5409 0 0 1-0.0859-10.215 9.5409 9.5409 0 0 1 8.4141-4.4961zm-0.18945 5.7774a3.7585 3.7585 0 0 0-3.3164 1.7734 3.7585 3.7585 0 0 0 1.209 5.1758 3.7585 3.7585 0 0 0 5.1758-1.207 3.7585 3.7585 0 0 0-1.2051-5.1777 3.7585 3.7585 0 0 0-1.8633-0.56445zm-34.709 25.17a3.7585 3.7585 0 0 0-3.3164 1.7734 3.7585 3.7585 0 0 0 1.209 5.1758 3.7585 3.7585 0 0 0 5.1758-1.207 3.7585 3.7585 0 0 0-1.207-5.1758 3.7585 3.7585 0 0 0-1.8613-0.5664zm18.727 29.068a3.7585 3.7585 0 0 0-3.3164 1.7715 3.7585 3.7585 0 0 0 1.209 5.1777 3.7585 3.7585 0 0 0 5.1758-1.207 3.7585 3.7585 0 0 0-1.207-5.1777 3.7585 3.7585 0 0 0-1.8613-0.56445zm-38.73 43.879-19.359 31.291c0.8624 0.27277 1.626 0.5199 2.2871 0.73633 1.8148 0.59408 2.8568 0.95182 4.0449 1.4238 0.33177 0.1318 0.67506 0.27322 1.0371 0.42774l20.961-33.879z"/>
   <path transform="scale(.97269 1.0281)" d="m736.06 304.96c-8.2538 0-16.508 1.1177-24.762 3.3531-8.2538 2.2354-15.648 5.675-22.182 10.318s-11.864 10.489-15.991 17.539c-3.9549 6.8781-5.9335 15.046-5.9335 24.504 0 8.4257 1.5492 15.649 4.6444 21.667 3.2671 5.8464 7.4795 10.746 12.638 14.701 5.1586 3.9549 11.005 7.2236 17.539 9.8029 6.5342 2.4074 13.24 4.47 20.118 6.1895 6.7062 1.8915 13.326 3.6104 19.861 5.1579 6.5342 1.5476 12.381 3.3529 17.539 5.4163s9.2859 4.6427 12.381 7.7379c3.2671 3.0952 4.8994 7.1359 4.8994 12.123 0 4.6427-1.203 8.5126-3.6103 11.608-2.4073 2.9232-5.4167 5.2451-9.0278 6.9646-3.611 1.7195-7.4791 2.9218-11.606 3.6096-4.1269 0.51586-7.997 0.77512-11.608 0.77512-2.5223 0-5.0062-0.13517-7.4515-0.40466l-19.166 28.655c8.1872 1.8336 16.517 2.9599 25.071 2.9599 12.553 0 23.557-1.4615 33.015-4.3847 9.6294-2.9232 17.625-6.964 23.987-12.123 6.5342-5.3306 11.435-11.607 14.702-18.829 3.2671-7.222 4.8994-15.046 4.8994-23.472 0-10.317-2.2338-18.744-6.7046-25.279-4.2988-6.7062-9.459-12.036-15.477-15.991-6.0184-3.9549-12.122-6.7915-18.313-8.5111-6.0184-1.8915-10.747-3.1821-14.186-3.8699-11.521-2.9232-20.891-5.3296-28.113-7.2211-7.0501-1.8915-12.64-3.7832-16.766-5.6747-3.9549-1.8915-6.62-3.956-7.9957-6.1914-1.3756-2.2354-2.0642-5.1584-2.0642-8.7694 0-3.9549 0.86069-7.2217 2.5802-9.801s3.8682-4.7284 6.4475-6.4479c2.7513-1.7195 5.7606-2.9237 9.0278-3.6115 3.2671-0.68781 6.5357-1.0316 9.8028-1.0316 4.9866 0 9.5433 0.4302 13.67 1.29 4.2988 0.85977 8.0818 2.3213 11.349 4.3847 2.0906 1.3204 3.8985 2.957 5.4255 4.911l19.823-30.271c-6.1848-3.8362-13.14-6.6467-20.865-8.4294-8.7696-2.2354-17.968-3.3531-27.597-3.3531z" stroke-width="1.343"/>
   <g transform="translate(8)">
    <path d="m635.7 543.9a9.5409 9.5409 0 0 0-13.192 2.8344 9.5409 9.5409 0 0 0 2.8344 13.192 9.5409 9.5409 0 0 0 13.192-2.8344 9.5409 9.5409 0 0 0-2.8344-13.192zm-3.1391 4.8571a3.7585 3.7585 0 0 1 1.118 5.1968 3.7585 3.7585 0 0 1-5.1985 1.1169 3.7585 3.7585 0 0 1-1.1153-5.1974 3.7585 3.7585 0 0 1 5.1958-1.1164z" stroke-width=".86842"/>
    <rect transform="matrix(-.84104 -.54098 .54088 -.8411 0 0)" x="-832.95" y="-117.69" width="7.764" height="130" stroke-width=".89248"/>
    <path d="m639.67 500.02a9.5409 9.5409 0 0 0-13.192 2.8344 9.5409 9.5409 0 0 0 2.8344 13.192 9.5409 9.5409 0 0 0 13.192-2.8344 9.5409 9.5409 0 0 0-2.8344-13.192zm-3.1391 4.8571a3.7585 3.7585 0 0 1 1.118 5.1968 3.7585 3.7585 0 0 1-5.1985 1.1169 3.7585 3.7585 0 0 1-1.1153-5.1974 3.7585 3.7585 0 0 1 5.1958-1.1164z" stroke-width=".86842"/>
    <rect transform="matrix(-.84104 -.54098 .54088 -.8411 0 0)" x="-812.55" y="-78.642" width="7.764" height="85" stroke-width=".89248"/>
    <path d="m670.61 526.52a9.5409 9.5409 0 0 0-13.192 2.8344 9.5409 9.5409 0 0 0 2.8344 13.192 9.5409 9.5409 0 0 0 13.192-2.8344 9.5409 9.5409 0 0 0-2.8344-13.192zm-3.1391 4.8571a3.7585 3.7585 0 0 1 1.118 5.1968 3.7585 3.7585 0 0 1-5.1985 1.1169 3.7585 3.7585 0 0 1-1.1153-5.1974 3.7585 3.7585 0 0 1 5.1958-1.1164z" stroke-width=".86842"/>
    <rect transform="matrix(-.84104 -.54098 .54088 -.8411 0 0)" x="-852.9" y="-84.185" width="7.764" height="102" stroke-width=".89248"/>
   </g>
   <rect x="772.06" y="339.47" width="10.835" height="5.2132"/>
  </g>
 </g>
 <g transform="translate(-628.98 -206.28)" display="none" fill="#fff" stroke-width="1.343">
  <path transform="scale(.97269 1.0281)" d="m836.14 360.16v82.022c0 8.2538 0.68855 15.819 2.0642 22.697 1.5476 6.7062 4.1256 12.468 7.7366 17.282 3.611 4.6427 8.5119 8.2533 14.702 10.833 6.3623 2.5793 14.445 3.868 24.246 3.868 7.7379 0 15.304-1.7189 22.698-5.1579 7.394-3.4391 13.411-9.0278 18.054-16.766h0.77507v18.57h34.82v-133.35h-36.625v69.899c0 13.584-2.2358 23.385-6.7066 29.403-4.4708 5.8464-11.693 8.7694-21.666 8.7694-8.7696 0-14.875-2.6657-18.315-7.9962-3.4391-5.5025-5.1584-13.755-5.1584-24.76v-75.315z" display="inline"/>
  <path transform="scale(.97269 1.0281)" d="m446.41 360.16 42.3 133.35h37.916l22.698-89.501h0.51605l23.73 89.501h37.657l42.043-133.35h-37.657l-24.503 90.274h-0.51604l-22.698-90.274h-35.595l-22.182 90.533h-0.51604l-24.503-90.533z" display="inline"/>
  <path transform="scale(.97269 1.0281)" d="m1301.4 356.55c-10.145 0-19.431 1.8053-27.856 5.4163-8.2537 3.611-15.39 8.5967-21.409 14.959-6.0184 6.1903-10.66 13.584-13.927 22.182s-4.9014 17.883-4.9014 27.857c0 10.317 1.5472 19.776 4.6424 28.373 3.2671 8.5977 7.8237 15.992 13.67 22.182s12.983 11.005 21.409 14.444c8.4258 3.2671 17.883 4.8996 28.372 4.8996 15.132 0 28.028-3.4377 38.689-10.316s18.571-18.313 23.73-34.305h-32.242c-1.2037 4.1269-4.4703 8.0812-9.8008 11.864-5.3306 3.611-11.694 5.4163-19.088 5.4163-10.317 0-18.226-2.6657-23.728-7.9962-5.5026-5.3306-8.5119-13.929-9.0278-25.793h96.207c0.6878-10.317-0.1709-20.204-2.5782-29.661s-6.3625-17.883-11.865-25.277c-5.3305-7.394-12.21-13.24-20.636-17.539-8.4257-4.4708-18.313-6.7063-29.662-6.7063zm-1.032 27.598c8.9415 0 15.562 2.4064 19.861 7.2211 4.4708 4.8147 7.5673 11.865 9.2868 21.15h-59.582c0.172-2.5793 0.6864-5.5023 1.5461-8.7694 1.0317-3.2671 2.666-6.3611 4.9014-9.2843 2.4074-2.9232 5.5018-5.3315 9.2848-7.223 3.9549-2.0634 8.8558-3.0948 14.702-3.0948z" display="inline"/>
  <path transform="scale(.97269 1.0281)" d="m1135.3 356.55c-9.2855 0-17.54 1.8053-24.762 5.4163-7.0501 3.611-12.982 8.5122-17.796 14.702-4.8147 6.0184-8.5126 13.069-11.092 21.15-2.4074 7.9098-3.6103 16.162-3.6103 24.76 0 9.1135 1.0307 17.798 3.0942 26.052 2.2354 8.0818 5.6762 15.218 10.319 21.409 4.6427 6.0184 10.574 10.833 17.796 14.444 7.222 3.4391 15.819 5.1579 25.792 5.1579 8.0818 0 15.735-1.6344 22.957-4.9015 7.394-3.4391 13.068-8.684 17.024-15.734h0.516v17.541c0.1719 9.4574-2.1509 17.28-6.9656 23.47-4.6427 6.1903-12.122 9.2862-22.439 9.2862-6.5342 0-12.296-1.3751-17.282-4.1264-4.9866-2.5793-8.3383-7.3076-10.058-14.186h-36.368c0.5159 7.566 2.5795 14.013 6.1905 19.344 3.783 5.5025 8.4247 9.9735 13.927 13.413 5.6745 3.4391 11.866 5.9319 18.572 7.4795 6.8781 1.7195 13.583 2.5799 20.118 2.5799 15.304 0 27.514-2.0626 36.627-6.1895s16.076-9.2009 20.891-15.219c4.8146-5.8464 7.9112-12.207 9.2868-19.085 1.5476-6.8781 2.3211-12.983 2.3211-18.314v-124.84h-34.82v17.797h-0.516c-4.4708-7.7379-10.06-13.242-16.766-16.509-6.5342-3.2671-14.185-4.8996-22.955-4.8996zm9.0278 27.598c6.0184 0 11.004 1.1177 14.959 3.3531 3.955 2.2354 7.1365 5.2448 9.5438 9.0278 2.4074 3.783 4.1267 8.1675 5.1585 13.154 1.0317 4.8147 1.5481 9.9732 1.5481 15.476 0 4.8147-0.6885 9.4566-2.0642 13.927-1.2036 4.2988-3.0952 8.1687-5.6745 11.608-2.5793 3.4391-5.8458 6.1912-9.8008 8.2546-3.9549 2.0634-8.5115 3.0948-13.67 3.0948-5.6745 0-10.403-1.2042-14.186-3.6115-3.783-2.4074-6.8795-5.5032-9.2868-9.2862-2.2354-3.783-3.8677-7.9947-4.8994-12.637-0.8598-4.8147-1.2912-9.6294-1.2912-14.444 0-4.9866 0.5164-9.715 1.5482-14.186 1.2036-4.6427 3.0101-8.6835 5.4174-12.123 2.5793-3.611 5.6738-6.4495 9.2848-8.513 3.783-2.0634 8.2546-3.0948 13.413-3.0948z" display="inline"/>
  <path transform="scale(.97269 1.0281)" d="m1067 356.55c-4.6427 0-9.1123 0.68755-13.411 2.0632-4.2989 1.3756-8.3411 3.3538-12.124 5.933-3.783 2.4074-7.1346 5.4168-10.058 9.0278-2.9232 3.4391-5.2461 7.2206-6.9656 11.347h-0.514v-24.76h-34.822v133.35h36.627v-60.096c0-6.0184 0.6015-11.607 1.8052-16.766 1.2036-5.1586 3.1802-9.6296 5.9315-13.413 2.9232-3.9549 6.7062-7.0508 11.349-9.2862 4.6428-2.2354 10.317-3.3531 17.024-3.3531 2.2354 0 4.5582 0.17284 6.9656 0.51674 2.4074 0.17196 4.469 0.42931 6.1885 0.77322v-34.046c-2.9233-0.85977-5.5884-1.29-7.9957-1.29z" display="inline"/>
  <path transform="scale(.97269 1.0281)" d="m365.93 356.55c-10.489 0-19.947 1.7189-28.372 5.1579-8.4257 3.2671-15.647 7.9954-21.666 14.186-6.0184 6.0184-10.66 13.412-13.927 22.182-3.2671 8.5977-4.9014 18.227-4.9014 28.888 0 10.661 1.6343 20.291 4.9014 28.888 3.2671 8.5977 7.9088 15.992 13.927 22.182 6.0184 6.0184 13.24 10.662 21.666 13.929 8.4257 3.2671 17.883 4.8996 28.372 4.8996 10.489 0 19.947-1.6324 28.372-4.8996 8.5977-3.2671 15.906-7.9109 21.925-13.929 6.0184-6.1903 10.66-13.584 13.927-22.182 3.2671-8.5977 4.9014-18.227 4.9014-28.888 0-10.661-1.6343-20.291-4.9014-28.888-3.2671-8.7696-7.9088-16.164-13.927-22.182-6.0184-6.1903-13.327-10.919-21.925-14.186-8.4257-3.4391-17.883-5.1579-28.372-5.1579zm0 27.598c6.1903 0 11.348 1.2887 15.475 3.868 4.2988 2.4074 7.6525 5.5896 10.06 9.5446 2.5793 3.9549 4.3857 8.5123 5.4175 13.671s1.5461 10.402 1.5461 15.732c0 5.3306-0.5144 10.575-1.5461 15.734-1.0317 4.9866-2.8382 9.544-5.4175 13.671-2.4074 3.9549-5.761 7.1353-10.06 9.5426-4.1269 2.4074-9.285 3.6115-15.475 3.6115s-11.348-1.2042-15.475-3.6115c-4.1269-2.4073-7.4806-5.5877-10.06-9.5426-2.4073-4.1269-4.1267-8.6843-5.1584-13.671-1.0317-5.1586-1.5481-10.404-1.5481-15.734 0-5.3306 0.51642-10.574 1.5481-15.732s2.7511-9.716 5.1584-13.671c2.5793-3.9549 5.933-7.1372 10.06-9.5446 4.1269-2.5793 9.285-3.868 15.475-3.868z" display="inline"/>
  <path transform="scale(.97269 1.0281)" d="m235.68 309.35v184.16h36.625v-184.16z" display="inline"/>
  <path transform="scale(.97269 1.0281)" d="m85.565 309.35v184.16h40.494v-76.089h77.122v-31.468h-77.122v-42.557h88.987v-34.048z" display="inline"/>
 </g>
</svg>
